<svg xmlns="http://www.w3.org/2000/svg" xmlns:xlink="http://www.w3.org/1999/xlink" width="500" zoomAndPan="magnify" viewBox="0 0 375 374.999991" height="500" preserveAspectRatio="xMidYMid meet" version="1.0"><defs><clipPath id="da75f41b71"><path d="M 132 2.933594 L 167 2.933594 L 167 173 L 132 173 Z M 132 2.933594 " clip-rule="nonzero"/></clipPath><clipPath id="8131d6d778"><path d="M 49 250 L 279 250 L 279 371.933594 L 49 371.933594 Z M 49 250 " clip-rule="nonzero"/></clipPath></defs><path fill="#b4d357" d="M 185.136719 204.980469 C 185.136719 204.980469 145.46875 169.539062 167.933594 120.058594 C 190.402344 70.574219 185.136719 35.128906 185.136719 35.128906 C 185.136719 35.128906 207.601562 68.117188 185.136719 116.898438 C 162.671875 165.675781 185.136719 204.980469 185.136719 204.980469 " fill-opacity="1" fill-rule="nonzero"/><g clip-path="url(#da75f41b71)"><path fill="#b4d357" d="M 156.195312 172.75 C 156.195312 172.75 116.527344 137.300781 138.992188 87.820312 C 161.457031 38.335938 156.195312 2.894531 156.195312 2.894531 C 156.195312 2.894531 178.65625 35.878906 156.195312 84.664062 C 133.726562 133.441406 156.195312 172.75 156.195312 172.75 " fill-opacity="1" fill-rule="nonzero"/></g><path fill="#b4d357" d="M 128.875 361.691406 C 128.875 361.691406 136.808594 327.085938 178.085938 327.085938 C 219.359375 327.085938 236.484375 307.605469 236.484375 307.605469 C 236.484375 307.605469 213.03125 360.730469 128.875 361.691406 " fill-opacity="1" fill-rule="nonzero"/><path fill="#b4d357" d="M 79.992188 310.96875 C 79.992188 310.96875 106.796875 342.929688 126.671875 358.453125 C 130.070312 343.601562 134.140625 308.417969 100.160156 297.882812 C 55.242188 283.953125 49.078125 250.050781 49.078125 250.050781 C 45.722656 318.898438 97.875 351.871094 117.511719 361.804688 C 105.136719 348.652344 89.308594 329.816406 79.992188 310.96875 " fill-opacity="1" fill-rule="nonzero"/><g clip-path="url(#8131d6d778)"><path fill="#3b5f1c" d="M 278.144531 250.050781 C 274.472656 263.96875 224.613281 275 163.613281 275 C 102.613281 275 52.75 263.96875 49.078125 250.050781 C 48.9375 252.398438 51.574219 275.726562 141.75 285.835938 C 225.945312 295.269531 265.996094 272.628906 265.996094 272.628906 C 259.796875 307.039062 235.109375 334.703125 205.015625 351.253906 C 181.238281 364.335938 152.355469 369.339844 125.496094 365.261719 C 125.289062 365.230469 125.027344 365.230469 124.832031 365.160156 C 136.945312 369.507812 150 371.886719 163.613281 371.886719 C 226.996094 371.886719 278.382812 320.519531 278.382812 257.148438 C 278.382812 254.761719 278.289062 252.398438 278.144531 250.050781 " fill-opacity="1" fill-rule="nonzero"/></g><path fill="#3b5f1c" d="M 178.914062 261.976562 C 123.777344 261.976562 79.082031 253.941406 79.082031 244.035156 C 79.082031 234.125 123.777344 226.097656 178.914062 226.097656 C 229.839844 226.097656 271.828125 232.949219 277.949219 241.800781 C 273.050781 228.160156 223.75 217.445312 163.613281 217.445312 C 100.226562 217.445312 48.839844 229.351562 48.839844 244.035156 C 48.839844 258.71875 100.226562 270.625 163.613281 270.625 C 223.75 270.625 273.050781 259.90625 277.949219 246.269531 C 271.828125 255.121094 229.839844 261.976562 178.914062 261.976562 " fill-opacity="1" fill-rule="nonzero"/><path fill="#3b5f1c" d="M 308.011719 232.152344 C 294.894531 233.378906 283.945312 240.464844 278.15625 250.144531 C 283.125 244.394531 290.617188 240.359375 299.3125 239.542969 C 315.816406 238 330.304688 248.578125 331.671875 263.171875 C 333.042969 277.765625 320.769531 290.847656 304.261719 292.394531 C 295.570312 293.207031 287.457031 290.632812 281.503906 285.910156 C 288.992188 294.34375 301.070312 299.273438 314.183594 298.042969 C 334.761719 296.121094 350.0625 279.804688 348.359375 261.609375 C 346.65625 243.414062 328.589844 230.226562 308.011719 232.152344 " fill-opacity="1" fill-rule="nonzero"/></svg>